<?xml version="1.0" encoding="UTF-8" standalone="no"?>
<!-- Created with Inkscape (http://www.inkscape.org/) -->

<svg
   width="150"
   height="150"
   viewBox="0 0 39.687499 39.6875"
   version="1.1"
   id="svg1"
   xmlns="http://www.w3.org/2000/svg"
   xmlns:svg="http://www.w3.org/2000/svg">
  <defs
     id="defs1" />
  <g
     id="layer1">
    <path
       d="m 17.841298,5.933973 c 2.463339,0.4025064 4.172249,2.4977798 5.568652,4.399215 0.08868,0.125341 0.177354,0.250682 0.268717,0.379821 0.07503,0.102149 0.150069,0.204298 0.227377,0.309542 0.397425,0.575163 0.514213,0.980364 0.434082,1.674834 -0.04366,0.174625 -0.08731,0.34925 -0.132292,0.529166 0.09891,-0.03666 0.197818,-0.07333 0.299723,-0.111104 0.130287,-0.04792 0.260574,-0.09584 0.394808,-0.145211 0.128923,-0.04758 0.257845,-0.09516 0.390674,-0.144177 1.39223,-0.484169 2.606454,-0.276279 3.941878,0.268201 1.621745,0.82694 3.109369,2.215663 3.704167,3.96875 0.02481,0.520898 0.02481,0.520898 0,0.926042 -0.09823,-0.04366 -0.196453,-0.08731 -0.297656,-0.132292 -0.382168,-0.162432 -0.382168,-0.162432 -0.892969,-0.132292 0.04366,0.218281 0.08731,0.436563 0.132292,0.661459 0.130968,0.08731 0.261937,0.174625 0.396875,0.264583 -0.032,0.469404 -0.07252,0.726261 -0.388607,1.083138 -0.961415,0.569001 -1.961638,0.67941 -3.050977,0.768945 -0.130968,0.04365 -0.261937,0.08731 -0.396875,0.132292 -0.257045,0.682806 -0.314786,1.35204 -0.37207,2.075325 -0.182302,1.698728 -0.757031,2.811434 -1.759066,4.180107 -0.506439,0.727221 -0.453321,1.487402 -0.382405,2.343526 0.221438,1.028207 0.725609,1.78971 1.374593,2.604492 0.212907,0.305925 0.212907,0.305925 0.212907,0.7028 -0.595931,0.232558 -1.080309,0.322717 -1.719792,0.264583 -0.934202,-0.412787 -1.302856,-1.230189 -1.719792,-2.116667 -0.605647,-1.701027 -1.036314,-3.35909 -1.190625,-5.159375 -0.130968,-0.04365 -0.261937,-0.08731 -0.396875,-0.132291 -0.198075,0.990375 -0.172334,1.919492 0,2.910416 -1.046764,0.685156 -2.074436,1.186223 -3.307291,1.455209 0.0208,-0.133186 0.04161,-0.266372 0.06304,-0.403593 0.218304,-1.647056 0.149304,-3.077471 -0.855245,-4.455025 -0.489915,-0.553653 -1.008557,-0.687366 -1.721342,-0.829924 -0.671711,-0.03198 -1.239816,-0.03409 -1.852083,0.264583 -0.04366,0.174625 -0.08731,0.34925 -0.132292,0.529167 0.218281,-0.04365 0.436563,-0.08731 0.661459,-0.132292 0.264182,-0.01827 0.528968,-0.02902 0.79375,-0.03307 0.200546,-0.0051 0.200546,-0.0051 0.405143,-0.01033 0.620733,0.06934 0.958665,0.35106 1.39733,0.779281 0.633079,0.916297 0.792508,1.860712 0.711068,2.968295 -0.140539,0.609002 -0.357843,1.006951 -0.79375,1.455208 -0.427881,0.122473 -0.427881,0.122473 -0.892969,0.173633 -0.154843,0.01859 -0.309686,0.03717 -0.469222,0.05633 -0.177012,0.01714 -0.177012,0.01714 -0.3576,0.03462 0,0.174625 0,0.34925 0,0.529166 0.216917,0.0034 0.433834,0.0068 0.657324,0.01033 0.288013,0.0075 0.576023,0.01504 0.86403,0.02274 0.142565,0.0019 0.28513,0.0038 0.432015,0.0057 0.878759,0.02679 1.526705,0.120528 2.279964,0.622701 0.132292,0.496094 0.132292,0.496094 0.132292,0.926042 -0.623143,0.496724 -1.270929,0.452184 -2.030367,0.444934 -0.199962,9.9e-5 -0.199962,9.9e-5 -0.403963,2.64e-4 -0.282108,-2.64e-4 -0.564217,-0.0016 -0.846316,-0.0038 -0.427065,-0.0031 -0.854019,-0.0027 -1.281092,-0.0019 -3.867508,-0.0052 -3.867508,-0.0052 -4.830971,-0.968675 -0.680999,-0.988385 -1.2415221,-1.964476 -1.3229164,-3.175 -0.012107,-0.156037 -0.024216,-0.312073 -0.03669,-0.47284 -0.099544,-2.478866 0.7683784,-4.550527 2.3931354,-6.381501 0.662654,-0.688932 1.315288,-1.264173 2.141471,-1.744597 0.200802,-0.117667 0.200802,-0.117667 0.40566,-0.237711 1.81901,-0.986512 3.81322,-1.364673 5.844088,-1.644417 0.489986,-0.10085 0.77402,-0.183671 1.158585,-0.499194 0.222481,-0.361615 0.222481,-0.361615 0.388607,-0.785482 0.318963,-0.737654 0.66169,-1.454862 1.027328,-2.170411 0.162433,-0.332694 0.303462,-0.667372 0.436149,-1.012858 -0.12176,-0.08015 -0.24352,-0.1603 -0.36897,-0.242879 -5.744813,-3.8025753 -5.744813,-3.8025753 -6.377905,-5.8425375 -0.05788,-0.6283854 -0.05788,-0.6283854 0,-1.190625 0.529167,-0.396875 0.529167,-0.396875 1.041797,-0.4134115 z m 10.467578,9.276953 c -0.344358,0.413229 -0.518612,0.683975 -0.570508,1.223698 0.01961,0.358208 0.01961,0.358208 0.173633,0.628386 0.385807,0.0331 0.385807,0.0331 0.79375,0 0.344273,-0.51641 0.302763,-0.844325 0.264583,-1.455209 -0.08731,-0.130968 -0.174625,-0.261937 -0.264583,-0.396875 -0.130969,0 -0.261938,0 -0.396875,0 z"
       fill="#fbe4c9"
       id="path3"
       style="stroke-width:0.132291" />
    <path
       d="m 23.082838,4.1015272 c 2.242413,1.2663865 3.773313,3.7993463 4.452958,6.2332108 0.04775,0.176672 0.0955,0.353343 0.144694,0.535368 0.195294,0.659785 0.195294,0.659785 0.676961,1.110527 0.365213,0.127164 0.365213,0.127164 0.749825,0.214974 1.732458,0.463358 3.251567,2.110422 4.154268,3.592029 0.512616,0.891251 0.754253,1.700993 0.603581,2.730582 -0.466077,1.197213 -1.346785,1.94079 -2.480469,2.488737 -0.752199,0.210175 -1.508364,0.321433 -2.282031,0.42168 -0.01944,0.258868 -0.01944,0.258868 -0.03927,0.522966 -0.187845,2.262805 -0.187845,2.262805 -0.660941,3.352767 -0.132225,0.505521 -0.04692,0.901364 0.03876,1.415934 0.01676,0.110356 0.03353,0.220711 0.0508,0.33441 0.05575,0.360712 0.117697,0.719949 0.180706,1.079457 0.02865,0.183279 0.02865,0.183279 0.05788,0.370262 0.13531,0.757847 0.293968,1.176416 0.901237,1.655454 1.08095,0.879418 1.08095,0.879418 1.190625,1.455208 -0.02332,0.746231 -0.11252,1.200526 -0.661458,1.719792 -0.877149,0.519153 -1.639111,0.432037 -2.629297,0.388607 -0.246334,-0.0055 -0.246334,-0.0055 -0.497644,-0.01111 -0.925776,-0.035 -1.648605,-0.09629 -2.429309,-0.642081 -0.66951,-0.7457 -1.024428,-1.515521 -1.372526,-2.447395 -0.04689,-0.121419 -0.09379,-0.242838 -0.14211,-0.367937 -0.113972,-0.295709 -0.225924,-0.592194 -0.337448,-0.888834 -0.501451,0.188846 -0.961922,0.418355 -1.430403,0.677994 -0.129093,0.07128 -0.258186,0.142566 -0.391191,0.216008 -0.09737,0.05423 -0.194748,0.108459 -0.295072,0.164331 0.126876,0.14734 0.126876,0.14734 0.256315,0.297656 0.454762,0.60635 0.484566,1.213801 0.405143,1.951302 -0.878991,0.938923 -1.964518,0.873875 -3.175,0.926042 -5.838157,0.130405 -5.838157,0.130405 -7.540622,-1.322919 -0.218281,0.04366 -0.436562,0.08731 -0.6614583,0.132291 C 8.9627675,32.48111 8.2765257,32.202452 7.4481338,31.739114 6.7676797,31.135693 6.263618,30.22021 6.1892952,29.296885 c -0.016018,-0.974439 0.094186,-1.411024 0.7462084,-2.146638 0.6162119,-0.541065 1.275457,-0.441468 2.058789,-0.429948 0.00819,-0.158254 0.016371,-0.316508 0.024805,-0.479557 0.2864207,-2.499319 1.8176484,-4.6714 3.7207034,-6.234245 2.323565,-1.692116 4.774585,-2.253757 7.551832,-2.745956 0.293298,-0.05557 0.58389,-0.125132 0.873493,-0.197533 0.0985,-0.273116 0.194241,-0.547626 0.273885,-0.826823 0.190912,-0.564718 0.483699,-1.07278 0.769979,-1.594218 0.196926,-0.378745 0.196926,-0.378745 0.01447,-0.886251 -0.422941,-0.337428 -0.422941,-0.337428 -0.950847,-0.669727 -0.19444,-0.129416 -0.388566,-0.259307 -0.582392,-0.38964 -0.09803,-0.06587 -0.19607,-0.131736 -0.297075,-0.1996 C 16.505657,9.8325962 16.505657,9.8325962 16.00575,7.8025905 15.824605,6.3550872 15.824605,6.3550872 16.252247,5.7122789 c 0.464937,-0.4785367 0.906885,-0.5379837 1.555977,-0.6051312 1.004269,0.086081 1.888198,0.3702175 2.695443,0.9756512 -0.01365,-0.180082 -0.02728,-0.3601639 -0.04134,-0.5457032 0.04692,-0.731978 0.175247,-0.9479245 0.7028,-1.438672 0.653768,-0.21792 1.268153,-0.263226 1.917712,0.0031 z M 21.562,4.8921767 c -0.369442,0.5541635 -0.317095,0.9311027 -0.264583,1.5874998 0.341109,0.5844233 0.762562,1.0793869 1.207161,1.5875 1.027924,1.2024502 1.947662,2.4799135 2.761589,3.8364585 0.785812,-0.06548 0.785812,-0.06548 1.5875,-0.132292 C 26.617016,9.2947597 25.331431,7.1073699 23.546375,5.4213432 22.85869,4.8978547 22.433838,4.8024287 21.562,4.8921767 Z m -4.7625,1.4552082 c -0.138657,1.0014139 0.09956,1.7040311 0.661459,2.5135416 1.529612,1.8077235 3.529703,3.1711365 5.55625,4.3625245 0.396875,0.267684 0.396875,0.267684 0.529166,0.664559 -0.166398,0.330213 -0.166398,0.330213 -0.413411,0.719336 -0.416779,0.684649 -0.742733,1.367568 -1.036113,2.112533 -0.261409,0.650097 -0.433118,0.964117 -1.064017,1.269173 -0.371489,0.09528 -0.371489,0.09528 -0.77618,0.160197 -0.148928,0.02513 -0.297856,0.05024 -0.451297,0.07613 -0.157007,0.0257 -0.314014,0.05139 -0.475779,0.07787 -3.418168,0.601636 -6.15663,1.803601 -8.231538,4.707724 -0.396982,0.634193 -0.671953,1.283057 -0.913123,1.989542 -0.04212,0.11511 -0.08424,0.230219 -0.127641,0.348816 -0.5519685,1.701691 -0.4282043,3.622745 0.327629,5.237923 0.430989,0.795151 0.819368,1.412056 1.652095,1.821594 1.431673,0.331384 2.865747,0.309362 4.327417,0.306345 0.429034,-3.97e-4 0.85795,0.0027 1.286969,0.006 0.273971,2.65e-4 0.547943,3.97e-4 0.821914,2.65e-4 0.191416,0.0019 0.191416,0.0019 0.386699,0.0037 0.656268,-0.0046 1.120149,-0.03131 1.643668,-0.448626 0.01846,-0.446281 0.01846,-0.446281 -0.132292,-0.926042 -0.882645,-0.588431 -1.687865,-0.61491 -2.711979,-0.628385 -0.146658,-0.0039 -0.293315,-0.0078 -0.444417,-0.01188 -0.358928,-0.0093 -0.717933,-0.01554 -1.076937,-0.02119 0,-0.174625 0,-0.34925 0,-0.529167 0.17471,-0.01484 0.17471,-0.01484 0.35295,-0.02997 0.980895,-0.09766 0.980895,-0.09766 1.79679,-0.606681 0.401044,-0.730474 0.370107,-1.401732 0.342614,-2.204517 0.02118,-0.33383 0.02118,-0.33383 0.285771,-0.730705 0.08731,0 0.174625,0 0.264583,0 0.199759,0.399519 0.149705,0.771316 0.148828,1.21543 5e-4,0.256566 5e-4,0.256566 10e-4,0.518315 -0.01672,0.490155 -0.07083,0.957633 -0.149861,1.441255 1.702299,-0.410611 1.702299,-0.410611 3.175,-1.322916 0.176389,-0.529167 0.176389,-0.529167 0,-1.058334 -0.01761,-0.695719 -0.0044,-1.300576 0.132291,-1.984375 0.130969,0.04366 0.261938,0.08731 0.396875,0.132292 0.01484,0.166525 0.01484,0.166525 0.02997,0.336414 0.115834,1.059541 0.32335,2.063853 0.61495,3.086633 0.03233,0.114629 0.06467,0.22926 0.09799,0.347362 0.368581,1.252672 0.832396,2.435109 1.770628,3.373341 0.845061,0.281687 1.464596,0.119594 2.248959,-0.264583 -0.117326,-0.150068 -0.234653,-0.300137 -0.355534,-0.454753 -0.998131,-1.335561 -1.544555,-2.619712 -1.364258,-4.307747 0.23417,-0.612446 0.513846,-1.038774 0.917773,-1.554427 0.926993,-1.215651 1.151738,-2.473111 1.270724,-3.975468 0.05685,-0.52231 0.164826,-0.982446 0.325045,-1.481564 0.163199,-0.02174 0.163199,-0.02174 0.329695,-0.04393 1.851731,-0.200858 1.851731,-0.200858 3.374471,-1.1467 0.164109,-0.389083 0.164109,-0.389083 0.132292,-0.79375 -0.170965,-0.181651 -0.347182,-0.358557 -0.529167,-0.529167 0.04366,-0.174625 0.08731,-0.34925 0.132292,-0.529166 0.174625,0.08731 0.34925,0.174625 0.529167,0.264583 0.174625,0.04365 0.34925,0.08731 0.529166,0.132292 0.09758,-1.170948 -0.475072,-1.995728 -1.185972,-2.871147 -1.318562,-1.488128 -2.86464,-2.464781 -4.882906,-2.594157 -1.005758,0.02166 -1.916728,0.349917 -2.794662,0.835091 0.04366,-0.09004 0.08731,-0.180081 0.132292,-0.272851 0.206444,-0.60625 0.231475,-1.107265 -0.04801,-1.691857 C 23.437557,10.366486 22.664592,9.3998943 21.826598,8.4640575 21.710636,8.3322361 21.594674,8.2004148 21.475198,8.0645987 20.48814,7.0035112 19.304141,6.1649525 17.841312,5.9339794 17.286882,5.9027809 17.286882,5.9027809 16.799515,6.3473909 Z M 27.382834,26.58801 c -0.649337,0.81167 -0.758167,1.425789 -0.716236,2.460831 0.11218,0.920722 0.502325,1.55482 1.080038,2.252059 0.351518,0.42647 0.426059,0.542665 0.487825,1.116211 -0.0191,0.128241 -0.0382,0.256481 -0.05788,0.388607 0.803832,0.06934 0.803832,0.06934 1.529622,-0.214974 0.257852,-0.426016 0.297965,-0.617961 0.190169,-1.107943 -0.420998,-0.419179 -0.420998,-0.419179 -0.926041,-0.79375 -1.101091,-0.925917 -1.121772,-2.183316 -1.253154,-3.534667 -0.02302,-0.143247 -0.04604,-0.286494 -0.06976,-0.434082 -0.08731,-0.04366 -0.174625,-0.08731 -0.264583,-0.132292 z M 7.274501,27.910927 c -0.3398904,0.509834 -0.2962857,1.040335 -0.2206586,1.635558 0.1949622,0.76959 0.6225368,1.353221 1.2624554,1.812293 0.5051253,0.151539 0.9473486,0.151147 1.4717448,0.124023 C 9.6373558,30.729369 9.4441068,29.991205 9.2506077,29.247796 9.1288399,28.714555 9.0611118,28.188653 8.9942926,27.646343 8.842271,27.465624 8.842271,27.465624 8.432053,27.480979 c -0.5270724,0.03514 -0.7544276,0.09593 -1.157552,0.429948 z"
       fill="#53474b"
       id="path12"
       style="stroke-width:0.132291" />
    <path
       d="m 21.562001,4.8921762 c 0.720195,-0.098209 1.0905,-0.059449 1.719791,0.3141925 1.842446,1.5719276 2.927451,3.5821218 3.571875,5.9035153 0,0.218282 0,0.436563 0,0.661459 -0.785812,0.06548 -0.785812,0.06548 -1.5875,0.132291 -0.09772,-0.151944 -0.19543,-0.303888 -0.296106,-0.460437 -0.749037,-1.151541 -1.519785,-2.2360515 -2.426208,-3.2721512 -0.849639,-0.9770847 -1.30112,-1.551334 -1.246436,-2.8819946 0.08731,-0.130969 0.174625,-0.2619375 0.264584,-0.396875 z"
       fill="#f8dbbf"
       id="path49"
       style="stroke-width:0.132291" />
    <path
       d="m 27.382834,26.58801 c 0.08731,0.04366 0.174625,0.08731 0.264584,0.132291 0.0914,0.538837 0.160353,1.075943 0.222208,1.618765 0.119581,0.919274 0.325779,1.714973 1.011308,2.386676 0.103172,0.07248 0.206344,0.144952 0.312642,0.219624 0.104196,0.07486 0.208391,0.149728 0.315743,0.22686 0.08407,0.05883 0.168145,0.117667 0.254765,0.178284 0.132292,0.132291 0.132292,0.132291 0.173633,0.504362 -0.04134,0.421679 -0.04134,0.421679 -0.23151,0.735872 -0.503727,0.319437 -0.947854,0.249196 -1.529623,0.214974 0.01194,-0.136255 0.02388,-0.272511 0.03618,-0.412895 -0.04405,-0.624858 -0.217848,-0.839771 -0.614949,-1.315165 -0.803373,-0.970422 -0.9415,-1.734586 -0.929659,-2.976562 0.07696,-0.657505 0.30538,-1.001455 0.714685,-1.513086 z"
       fill="#f5dec4"
       id="path59"
       style="stroke-width:0.132291" />
    <path
       d="m 8.8620009,27.514051 c 0.3753329,0.375333 0.3320669,1.384561 0.4082439,1.893941 0.1162071,0.595438 0.2986311,1.1141 0.5177977,1.677934 0,0.130969 0,0.261938 0,0.396875 -0.7374584,0.03815 -1.2429942,0.04008 -1.8520833,-0.396875 -0.7054207,-0.783066 -0.9260416,-1.467842 -0.9260416,-2.513541 0.098278,-0.461906 0.1922659,-0.601539 0.5539713,-0.901237 0.4569655,-0.192941 0.8067355,-0.194895 1.298112,-0.157097 z"
       fill="#f7dcbd"
       id="path61"
       style="stroke-width:0.132291" />
    <path
       d="m 17.857834,24.339051 c 0.694542,0.45866 1.016606,0.947889 1.322917,1.719792 -0.04366,0.174625 -0.08731,0.34925 -0.132292,0.529167 -0.08731,0 -0.174625,0 -0.264583,0 -0.08731,0.130968 -0.174625,0.261937 -0.264583,0.396875 -0.07367,-0.204639 -0.14734,-0.409278 -0.223243,-0.620118 -0.232217,-0.581367 -0.468545,-0.967746 -0.967382,-1.364257 -0.526293,-0.175431 -0.991905,-0.144728 -1.546159,-0.14056 -0.307726,0.0018 -0.307726,0.0018 -0.621668,0.0036 -0.157742,0.0016 -0.315484,0.0031 -0.478007,0.0047 0.04366,-0.218281 0.08731,-0.436563 0.132292,-0.661458 1.085653,-0.434262 1.974872,-0.310098 3.042708,0.132291 z"
       fill="#4a3c42"
       id="path70"
       style="stroke-width:0.132291" />
    <path
       d="m 28.308876,15.210926 c 0.174625,0.04366 0.34925,0.08731 0.529166,0.132292 0.216,0.431999 0.154178,0.848718 0.132292,1.322917 -0.130969,0.196453 -0.130969,0.196453 -0.264583,0.396875 -0.413412,0.02481 -0.413412,0.02481 -0.79375,0 -0.18958,-0.379159 -0.172832,-0.636721 -0.132292,-1.058333 0.264583,-0.446485 0.264583,-0.446485 0.529167,-0.793751 z"
       fill="#4e4144"
       id="path80"
       style="stroke-width:0.132291" />
  </g>
</svg>
