<?xml version="1.0" encoding="UTF-8" standalone="no"?>
<!-- Created with Inkscape (http://www.inkscape.org/) -->

<svg
   width="150"
   height="150"
   viewBox="0 0 39.687499 39.6875"
   version="1.1"
   id="svg1"
   xmlns="http://www.w3.org/2000/svg"
   xmlns:svg="http://www.w3.org/2000/svg">
  <defs
     id="defs1" />
  <g
     id="layer1">
    <path
       d="m 17.563979,8.9673764 c 0.523895,-0.05682 0.989887,-0.06739 1.51356,-0.05079 0.162567,0.0028 0.325135,0.0055 0.492629,0.0083 0.390177,0.0071 0.780327,0.01586 1.170445,0.02571 0.702337,0.01624 1.404559,0.02731 2.107008,0.037 0.672925,0.0095 1.345817,0.02064 2.018711,0.03214 0.338521,0.0057 0.677049,0.011 1.015583,0.01594 0.483286,0.0074 0.966491,0.01689 1.449729,0.02689 0.217959,0.0028 0.217959,0.0028 0.440321,0.0057 0.819386,0.01927 1.530027,0.124018 2.306815,0.386656 0.61492,3.0131116 0.465754,5.9703676 -0.32506,8.9391436 -0.04009,0.150664 -0.08019,0.301329 -0.121501,0.456559 -0.76864,2.815518 -1.860539,5.408275 -3.250994,7.974678 -0.07474,0.138316 -0.149486,0.276634 -0.226494,0.419142 -0.774315,1.393682 -0.774315,1.393682 -1.276907,1.714063 -0.542147,0.05156 -1.024954,0.0689 -1.56435,0.05079 -0.14163,-0.0016 -0.28326,-0.0031 -0.429181,-0.0048 -1.039489,-0.0185 -1.039489,-0.0185 -1.419597,-0.208558 0.05259,-0.254975 0.105175,-0.50995 0.159356,-0.772652 0.179555,-0.990807 0.219777,-1.950347 0.216495,-2.955377 0.0039,-0.247171 0.0039,-0.247171 0.0079,-0.499335 5.77e-4,-0.873645 -0.0078,-1.230757 -0.546317,-1.948771 -0.684077,-0.114013 -1.008025,-0.08842 -1.584666,0.304743 -0.916335,1.272687 -1.002804,2.933026 -1.235481,4.444177 -0.105391,0.614566 -0.105391,0.614566 -0.267921,0.939626 -0.385841,0.01767 -0.77192,0.03022 -1.158025,0.04064 -0.214958,0.0075 -0.429917,0.01508 -0.651389,0.02286 -0.724213,-0.07312 -1.052704,-0.245959 -1.603713,-0.71358 -0.563372,-1.126743 -0.516906,-2.287096 -0.526318,-3.526771 -0.0013,-0.16745 -0.0026,-0.334899 -0.004,-0.507422 -0.0022,-0.35449 -0.004,-0.708982 -0.0053,-1.063476 -0.0019,-0.356285 -0.0052,-0.712566 -0.01,-1.068824 -0.05908,-4.362687 0.613341,-8.930719 3.308602,-12.5244016 z m 2.793482,3.7077136 c -0.623453,0.770065 -0.964379,1.452736 -1.07676,2.448106 0.130237,1.227951 0.653005,2.247998 1.533876,3.108384 0.936329,0.561798 1.861347,0.623867 2.925538,0.48759 1.279274,-0.47516 1.847957,-1.138398 2.488738,-2.316051 0.416991,-1.173751 0.449368,-2.121839 -0.06095,-3.260756 -0.489934,-0.887744 -1.135135,-1.414506 -2.10273,-1.737038 -1.525651,-0.150347 -2.634144,0.115511 -3.707712,1.269765 z"
       fill="#e4e7db"
       id="path8"
       style="stroke-width:0.16253" />
    <path
       d="m 27.311962,2.7283874 c 0.328869,0.225383 0.328869,0.225383 0.816459,0.712973 0,0.10727 0,0.214539 0,0.32506 0.10727,0 0.214539,0 0.32506,0 2.726768,3.612796 3.403805,7.8672136 2.852209,12.2901326 -0.239549,1.476872 -0.559063,2.928631 -1.020574,4.352038 -0.268421,0.754789 -0.268421,0.754789 -0.0438,1.561176 0.233868,0.386838 0.233868,0.386838 0.528222,0.761859 1.229178,1.698639 1.979046,3.43518 1.747196,5.576807 -1.012935,5.355949 -1.012935,5.355949 -2.417632,6.755148 -0.670435,0.396167 -0.670435,0.396167 -1.351029,0.446957 -0.940408,-0.323747 -1.299169,-0.949271 -1.773227,-1.801161 -0.105384,-0.216844 -0.210768,-0.433688 -0.319345,-0.657103 -0.110832,-0.227739 -0.221664,-0.455478 -0.335853,-0.690118 -0.954229,-2.010055 -0.954229,-2.010055 -0.954229,-2.428425 -0.10727,0.05363 -0.214539,0.10727 -0.325059,0.162531 -0.324995,0.0065 -0.650197,0.0071 -0.975179,0 -0.03688,0.227948 -0.07375,0.455896 -0.11174,0.690751 -0.603277,2.949814 -2.598939,5.613027 -5.089217,7.273213 -0.764738,0.450997 -1.424149,0.36077 -2.275421,0.162529 -0.939311,-0.815248 -1.284666,-1.765859 -1.625303,-2.925538 -0.04882,-0.157133 -0.09763,-0.314267 -0.147927,-0.476162 -0.513013,-1.875479 -0.636303,-4.004832 -0.0146,-5.862503 -0.10727,-0.05363 -0.214539,-0.10727 -0.32506,-0.16253 -0.217894,0.157552 -0.435785,0.315105 -0.660279,0.477432 C 10.158866,31.82541 10.158866,31.82541 8.1575612,32.148201 7.6496553,32.04662 7.6496553,32.04662 7.2966601,31.626327 6.4784684,30.098337 7.0313217,28.016391 7.4928386,26.429815 c 0.9489158,-3.029817 2.3342718,-4.884626 5.0327144,-6.572936 0.321809,-0.160905 0.321809,-0.160905 0.650119,-0.32506 0.105311,-0.597419 0.17366,-1.165109 0.223479,-1.767513 0.554021,-5.254584 2.962728,-10.1382626 6.95704,-13.6601286 2.091326,-1.629386 4.429212,-2.773372 6.955771,-1.37579 z m -8.44584,4.364816 c -0.352565,0.395375 -0.352565,0.395375 -0.489494,0.898994 3.700805,0.107269 7.401611,0.214539 11.214562,0.325059 -0.312121,-1.872728 -1.473671,-3.628011 -2.966171,-4.804789 -3.036975,-1.58751 -5.909714,1.529089 -7.758897,3.580736 z m -2.135109,2.778245 c -0.261367,0.5867366 -0.261367,0.5867366 -0.467274,1.2088166 -0.08758,0.195265 -0.175151,0.390529 -0.265381,0.591711 -0.631761,1.434434 -1.034917,2.916258 -1.359917,4.446715 -0.02746,0.128682 -0.05493,0.257364 -0.08323,0.389944 -0.218088,1.096047 -0.289596,2.141614 -0.285003,3.257456 -3.09e-4,0.170383 -6.21e-4,0.340767 -9.46e-4,0.516316 -2.28e-4,0.357426 3.73e-4,0.714855 0.0017,1.072277 0.0017,0.543133 10e-6,1.086178 -0.0021,1.629307 2.11e-4,0.349503 6.32e-4,0.699007 0.0013,1.048508 -6.52e-4,0.160206 -0.0013,0.32041 -0.002,0.48547 -0.02359,1.840944 -0.02359,1.840944 0.77655,3.394297 0.710033,0.408269 1.140292,0.413362 1.970675,0.406325 0.223338,-0.0015 0.446678,-0.0029 0.676784,-0.0044 0.172218,-0.0019 0.344437,-0.0037 0.521874,-0.0057 0.327567,-1.234676 0.567909,-2.485114 0.812649,-3.738187 0.214539,0 0.429079,0 0.65012,0 -0.09783,1.070453 -0.23812,2.118791 -0.416483,3.179491 -0.239331,1.492247 -0.286519,2.94739 -0.233637,4.459414 1.150693,-1.150694 1.344105,-2.925805 1.636092,-4.468303 0.08508,-0.411314 0.197805,-0.816691 0.314266,-1.220244 0.321809,-0.160904 0.321809,-0.160904 0.65012,-0.325059 0.01205,0.891398 0.02193,1.724283 -0.16253,2.600478 0.566594,0.283296 1.205635,0.227036 1.828461,0.243795 0.272364,0.01173 0.544729,0.02347 0.825347,0.03556 0.777158,-0.05009 0.777158,-0.05009 1.281193,-0.5733 0.552262,-0.829939 1.034206,-1.674082 1.489434,-2.56048 0.09196,-0.17815 0.183925,-0.356299 0.278673,-0.539848 0.853556,-1.690671 1.520575,-3.418273 2.098326,-5.219804 0.06788,-0.208255 0.135764,-0.41651 0.205702,-0.631073 0.646178,-2.116957 0.973926,-4.20771 0.982798,-6.418661 0.0014,-0.240375 0.0014,-0.240375 0.0027,-0.485606 -0.01068,-1.097651 -0.157706,-2.116452 -0.378554,-3.1916566 -0.92021,-0.31113 -1.784328,-0.379842 -2.747135,-0.392358 -0.153951,-0.0032 -0.307901,-0.0065 -0.466518,-0.0099 -0.496506,-0.01 -0.992996,-0.01758 -1.489555,-0.02443 -0.168319,-0.0023 -0.336639,-0.0047 -0.510058,-0.0071 -0.168601,-0.0023 -0.337202,-0.0046 -0.510912,-0.007 -0.167622,-0.0023 -0.335244,-0.0046 -0.507946,-0.007 -0.334229,-0.0046 -0.668468,-0.0089 -1.00271,-0.013 -0.900825,-0.0128 -1.79515,-0.04595 -2.694084,-0.110693 -1.970581,-0.190638 -1.970581,-0.190638 -3.418844,0.987921 z m -5.86187,12.4303626 c -1.8867719,1.968003 -2.9229828,4.968441 -2.9147442,7.682711 -0.06848,0.710335 -0.06848,0.710335 0.1828462,0.924389 2.041088,-0.140853 3.896126,-1.621782 5.526016,-2.763008 -0.02158,-0.226482 -0.04316,-0.452963 -0.06539,-0.686309 -0.209388,-2.262298 -0.342385,-4.519644 -0.422196,-6.790065 -0.837773,0 -1.722229,1.08756 -2.306529,1.632282 z m 18.396987,0.643135 c -0.05312,0.112874 -0.106248,0.225748 -0.160982,0.342043 -0.246788,0.522997 -0.494738,1.045428 -0.743091,1.567683 -0.132836,0.279796 -0.132836,0.279796 -0.268356,0.565244 -0.52521,1.095377 -1.069852,2.151083 -1.751204,3.159612 -0.274558,0.632859 -0.06454,1.189016 0.172926,1.815247 0.07095,0.155208 0.141891,0.310417 0.214987,0.470329 0.07794,0.170647 0.155876,0.341293 0.236176,0.517112 0.08171,0.175675 0.163419,0.35135 0.247605,0.532349 0.08045,0.17756 0.160904,0.355121 0.243794,0.538063 0.459649,1.013248 0.459649,1.013248 1.158026,1.86941 0.808315,-0.07523 0.808315,-0.07523 1.156755,-0.560601 0.371088,-0.699831 0.599782,-1.413389 0.813919,-2.171932 0.04086,-0.138383 0.08171,-0.276765 0.123802,-0.41934 0.726522,-2.497179 1.135091,-4.552674 -0.156816,-6.921169 -0.296033,-0.465714 -0.593341,-0.893725 -0.962481,-1.30405 -0.10727,0 -0.21454,0 -0.32506,0 z m -13.48998,6.338666 c -0.814657,2.036642 -0.277093,4.623154 0.487589,6.623093 0.306389,0.711513 0.306389,0.711513 0.81265,1.340871 0.622839,0.110727 0.910356,0.03646 1.462769,-0.274269 2.076144,-1.600362 3.662543,-3.676672 4.388307,-6.226926 0,-0.268174 0,-0.536349 0,-0.81265 -0.884976,-0.08045 -0.884976,-0.08045 -1.787829,-0.162529 -0.06662,0.180178 -0.133249,0.360359 -0.201892,0.545997 -0.08758,0.235492 -0.175152,0.470983 -0.265381,0.713609 -0.08674,0.233814 -0.173476,0.467629 -0.262842,0.708528 -0.245064,0.632343 -0.245064,0.632343 -0.570124,1.282463 -0.507906,0.203163 -0.507906,0.203163 -0.97518,0.32506 -0.646388,-0.646388 -0.646388,-0.646388 -0.665991,-1.519908 0.0011,-0.285702 0.003,-0.571401 0.0057,-0.857092 7.37e-4,-0.145819 0.0015,-0.29164 0.0022,-0.441878 0.0019,-0.360618 0.0049,-0.721229 0.0079,-1.081839 -0.804523,-0.05363 -1.609046,-0.10727 -2.437948,-0.16253 z"
       fill="#53494e"
       id="path15"
       style="stroke-width:0.16253" />
    <path
       d="m 26.117114,3.3093054 c 1.034689,0.555666 1.665189,1.235038 2.285577,2.224627 0.18196,0.285983 0.18196,0.285983 0.367596,0.577743 0.323962,0.564002 0.600423,1.105955 0.820904,1.717992 -0.08045,0.241357 -0.08045,0.241357 -0.162531,0.48759 -3.64717,-0.10727 -7.294341,-0.21454 -11.052032,-0.32506 1.463395,-2.438991 4.617469,-5.70595 7.740486,-4.682892 z"
       fill="#f7ba99"
       id="path36"
       style="stroke-width:0.16253" />
    <path
       d="m 29.266131,22.944946 c 0.779519,0.38976 0.916715,0.699959 1.330713,1.452612 0.16939,0.303895 0.16939,0.303895 0.342202,0.613931 1.086966,2.09185 0.265127,4.584639 -0.372676,6.710071 -0.640779,1.941018 -0.640779,1.941018 -1.300239,2.600478 -0.81265,-0.16253 -0.81265,-0.16253 -1.220244,-0.719322 -0.44333,-0.778517 -0.827631,-1.583687 -1.197388,-2.39922 -0.06746,-0.142363 -0.134925,-0.284726 -0.204432,-0.431402 -0.358062,-0.787138 -0.477951,-1.103691 -0.303474,-1.976072 0.153628,-0.334055 0.318444,-0.663069 0.490764,-0.987877 0.0992,-0.188769 0.198407,-0.377539 0.300617,-0.572029 0.104231,-0.195893 0.208463,-0.391785 0.315854,-0.593615 0.644846,-1.218411 1.277858,-2.428804 1.818303,-3.697555 z"
       fill="#f7ad82"
       id="path38"
       style="stroke-width:0.16253" />
    <path
       d="m 13.175672,20.669529 c 0.009,0.174509 0.01799,0.349019 0.02726,0.528817 0.03389,0.653392 0.06816,1.306762 0.102692,1.96012 0.01481,0.281668 0.02947,0.563344 0.04397,0.845028 0.02098,0.407126 0.04257,0.814221 0.06416,1.221315 0.01277,0.244277 0.02553,0.488554 0.03869,0.740234 0.04911,0.730275 0.124744,1.454093 0.210821,2.18086 -0.480203,0.309124 -0.961103,0.61706 -1.442453,0.924389 -0.133668,0.08621 -0.267336,0.172427 -0.405055,0.261254 -2.4773348,1.577365 -2.4773348,1.577365 -3.6785088,1.577365 -0.1625299,-0.16253 -0.1625299,-0.16253 -0.2133205,-0.802491 0.034103,-2.971192 1.1280382,-5.973307 3.2417103,-8.074434 1.493044,-1.362457 1.493044,-1.362457 2.010037,-1.362457 z"
       fill="#f6bb9a"
       id="path39"
       style="stroke-width:0.16253" />
    <path
       d="m 15.77615,29.283612 c 0.804523,0.05363 1.609046,0.10727 2.437948,0.16253 -0.0038,0.215378 -0.0075,0.430755 -0.01143,0.652659 -0.0031,0.28358 -0.006,0.567161 -0.0089,0.850742 -0.0027,0.141839 -0.0055,0.283678 -0.0083,0.429816 -0.0056,0.727989 0.02239,1.142498 0.35363,1.80497 0.667748,0.24186 0.667748,0.24186 1.300239,-0.16253 0.604413,-1.019947 0.947627,-2.125243 1.300238,-3.250597 0.884976,0.08045 0.884976,0.08045 1.787829,0.162529 -0.120591,2.090247 -1.151862,3.621432 -2.437948,5.200957 -0.160904,0.207835 -0.321809,0.41567 -0.48759,0.629803 -0.720672,0.750702 -1.458762,1.371781 -2.488736,1.604983 -0.641443,-0.179008 -0.757159,-0.529014 -1.08692,-1.097077 -0.160465,-0.421275 -0.305592,-0.848639 -0.436799,-1.279923 -0.06767,-0.217472 -0.135344,-0.434945 -0.205066,-0.659008 -0.268824,-1.041316 -0.357833,-2.05689 -0.363788,-3.12997 -0.0023,-0.190027 -0.0046,-0.380053 -0.007,-0.575838 0.03746,-0.531396 0.03746,-0.531396 0.362518,-1.344046 z"
       fill="#fad68b"
       id="path42"
       style="stroke-width:0.16253" />
    <path
       d="m 23.902644,12.705564 c 0.48759,0.193005 0.48759,0.193005 0.81265,0.48759 0.114926,0.26816 0.2242,0.538888 0.325059,0.812649 0.160905,0.05363 0.32181,0.10727 0.48759,0.16253 0.07561,1.058594 -0.08828,1.698575 -0.650119,2.600478 -0.668412,0.64113 -1.097953,0.955636 -2.031624,1.005654 -0.811452,-0.04347 -1.01942,-0.314808 -1.56435,-0.914231 -0.656787,-0.813845 -0.692343,-1.334938 -0.629803,-2.366841 0.612169,-1.512417 1.741161,-1.961995 3.250597,-1.787829 z"
       fill="#b6cfcf"
       id="path55"
       style="stroke-width:0.16253" />
    <path
       d="m 25.131777,11.882757 c 0.948966,0.845442 1.322997,1.687907 1.462769,2.945854 -0.147396,1.293808 -0.620335,2.327806 -1.554192,3.240439 -1.019649,0.668045 -1.901206,0.816453 -3.088068,0.650119 -1.147406,-0.399097 -1.639455,-0.957636 -2.275418,-1.950358 -0.206427,-0.825709 -0.09987,-1.432036 0,-2.275418 0.241357,0.160904 0.241357,0.160904 0.48759,0.325059 0.107269,-0.05363 0.214539,-0.10727 0.325059,-0.16253 0.01341,0.221244 0.02682,0.442488 0.04064,0.670436 0.123822,0.804849 0.240861,1.164579 0.772017,1.767513 0.711401,0.474267 1.265236,0.591687 2.112888,0.487589 0.868936,-0.405503 1.362206,-0.801746 1.818303,-1.665931 0.280737,-0.950188 0.220239,-1.57083 -0.223478,-2.458264 -0.427907,-0.551525 -0.605251,-0.762342 -1.269765,-0.914231 0,-0.05363 0,-0.107269 0,-0.16253 -0.429079,-0.05363 -0.858158,-0.10727 -1.300239,-0.16253 0.10727,-0.214539 0.21454,-0.429078 0.32506,-0.650119 1.003306,-0.200661 1.468835,-0.173487 2.366841,0.314902 z"
       fill="#504345"
       id="path57"
       style="stroke-width:0.16253" />
    <path
       d="m 20.489517,23.432536 c 0.160904,0.05363 0.321809,0.10727 0.48759,0.16253 0.106801,2.753113 -0.189471,6.27363 -1.787829,8.614084 -0.05363,0 -0.10727,0 -0.162531,0 -0.08231,-1.66213 0.03127,-3.226589 0.294586,-4.865739 0.02687,-0.169167 0.05374,-0.338334 0.08142,-0.512627 0.471488,-2.782976 0.471488,-2.782976 1.086761,-3.398248 z"
       fill="#f4ad87"
       id="path65"
       style="stroke-width:0.16253" />
    <path
       d="m 21.302166,22.457357 c 0.442234,0.360687 0.628176,0.653868 0.706704,1.222069 0.01928,0.494942 0.01601,0.984828 0.0044,1.47999 -2.1e-4,0.170542 -4.19e-4,0.341084 -6.15e-4,0.516794 -0.01458,1.263379 -0.01458,1.263379 -0.385373,1.819573 0,-0.429079 0,-0.858158 0,-1.300239 -0.321809,0.160905 -0.321809,0.160905 -0.65012,0.32506 -0.05363,-0.965428 -0.10727,-1.930855 -0.16253,-2.925538 -0.160904,0.05363 -0.321809,0.10727 -0.48759,0.16253 -0.205007,0.565327 -0.205007,0.565327 -0.355534,1.229132 -0.05594,0.224805 -0.111878,0.449611 -0.169513,0.681229 -0.04127,0.174104 -0.08255,0.348207 -0.125072,0.527587 -0.05363,0 -0.10727,0 -0.16253,0 0.05363,-0.536348 0.10727,-1.072697 0.16253,-1.625299 -0.214539,0 -0.429079,0 -0.65012,0 0.06723,-0.857191 0.20962,-1.329055 0.81265,-1.950359 0.508492,-0.254245 0.903021,-0.220434 1.462769,-0.162529 z"
       fill="#483e44"
       id="path69"
       style="stroke-width:0.16253" />
    <path
       d="m 23.577584,11.405325 c 0,0.05363 0,0.10727 0,0.16253 -0.157552,0.04693 -0.315104,0.09386 -0.477431,0.142214 -0.515081,0.124684 -0.515081,0.124684 -0.660278,0.507905 0.482714,0 0.965428,0 1.462769,0 0,0.05363 0,0.10727 0,0.162531 -0.321809,0.01509 -0.321809,0.01509 -0.65012,0.03047 -0.915267,0.148731 -1.389864,0.368737 -2.112888,0.944705 -0.461843,0.746055 -0.725315,1.40208 -0.812649,2.275418 -0.160905,-0.214539 -0.32181,-0.429079 -0.487589,-0.650119 -0.05363,0.375444 -0.10727,0.750888 -0.162531,1.137709 -0.325059,-0.32506 -0.325059,-0.32506 -0.396167,-0.893915 0.120596,-1.240407 0.612245,-2.16721 1.533876,-3.006803 0.993665,-0.745248 1.51835,-0.85484 2.763008,-0.812649 z"
       fill="#473a3c"
       id="path73"
       style="stroke-width:0.16253" />
    <path
       d="m 23.740115,12.380505 c 0.844938,0.292478 1.182555,0.696481 1.625298,1.462768 -0.160904,0.08045 -0.160904,0.08045 -0.325059,0.16253 -0.09721,-0.157552 -0.194426,-0.315105 -0.294586,-0.477431 -0.308607,-0.535214 -0.308607,-0.535214 -0.843124,-0.660278 -1.057111,-0.130726 -1.057111,-0.130726 -2.015116,0.236811 -0.493427,0.423065 -0.864707,0.763754 -1.072951,1.388488 -0.05975,0.911154 -0.0058,1.500041 0.487589,2.275418 0.335084,0.376124 0.335084,0.376124 0.65012,0.65012 -0.529826,-0.147174 -0.802058,-0.314183 -1.1885,-0.711069 -0.396541,-0.851828 -0.396317,-1.615269 -0.274269,-2.539529 0.584611,-1.339732 1.824182,-1.971882 3.250598,-1.787828 z"
       fill="#d0e9e8"
       id="path81"
       style="stroke-width:0.16253" />
  </g>
</svg>
