<?xml version="1.0" encoding="UTF-8" standalone="no"?>
<!-- Created with Inkscape (http://www.inkscape.org/) -->

<svg
   width="180"
   height="180"
   viewBox="0 0 180 180"
   version="1.1"
   id="svg1"
   inkscape:version="1.4 (86a8ad7, 2024-10-11)"
   sodipodi:docname="tortoise.svg"
   xmlns:inkscape="http://www.inkscape.org/namespaces/inkscape"
   xmlns:sodipodi="http://sodipodi.sourceforge.net/DTD/sodipodi-0.dtd"
   xmlns="http://www.w3.org/2000/svg"
   xmlns:svg="http://www.w3.org/2000/svg">
  <sodipodi:namedview
     id="namedview1"
     pagecolor="#ffffff"
     bordercolor="#000000"
     borderopacity="0.25"
     inkscape:showpageshadow="2"
     inkscape:pageopacity="0.0"
     inkscape:pagecheckerboard="0"
     inkscape:deskcolor="#d1d1d1"
     inkscape:document-units="px"
     inkscape:zoom="3.9794398"
     inkscape:cx="102.02441"
     inkscape:cy="102.40135"
     inkscape:window-width="2240"
     inkscape:window-height="1294"
     inkscape:window-x="-11"
     inkscape:window-y="-11"
     inkscape:window-maximized="1"
     inkscape:current-layer="layer1" />
  <defs
     id="defs1" />
  <g
     inkscape:label="Layer 1"
     inkscape:groupmode="layer"
     id="layer1">
    <path
       d="m 155.6806,56.021261 c 5.02535,3.196576 8.69136,8.145369 10.08498,13.983725 0.52187,4.66992 0.35888,9.09296 -2.19118,13.14706 -4.51173,5.61086 -10.2786,7.53762 -16.90244,9.92663 -3.58328,1.62447 -5.31199,4.09994 -7.57711,7.226184 -3.41221,4.48868 -7.22093,7.62731 -12.22265,10.2369 0.27115,0.76828 0.54231,1.53656 0.82169,2.32812 1.23241,4.16311 1.45463,7.97642 -0.0342,12.08571 -2.7969,4.23121 -6.06857,6.91658 -10.7847,8.73047 -3.45017,0.69004 -6.69732,0.92024 -10.03148,-0.30813 -1.33525,-0.9244 -1.33525,-0.9244 -2.43083,-2.56779 -0.15301,-1.81396 -0.25516,-3.59263 -0.30814,-5.40946 -0.0952,-2.82396 -0.23073,-5.50175 -0.78745,-8.28539 -0.54373,0.14547 -1.08746,0.29093 -1.64767,0.4408 -0.74427,0.19348 -1.48854,0.38697 -2.255368,0.58631 -0.724502,0.19066 -1.449003,0.38132 -2.19546,0.57776 -6.951415,1.52864 -13.66844,1.85244 -20.777657,1.81884 -1.347848,0.006 -1.347848,0.006 -2.722926,0.0128 -5.027967,-0.008 -9.834346,-0.2734 -14.77225,-1.24538 -0.165237,0.42656 -0.330473,0.85311 -0.500722,1.29259 -2.292157,5.57323 -6.775485,8.14956 -11.961595,10.65617 -4.84788,1.77135 -10.885935,2.10127 -15.749082,0.2739 -2.918598,-1.49983 -5.021886,-2.91081 -6.847427,-5.64913 -0.409542,-2.0477 -0.352166,-3.29743 0.806709,-5.06495 3.043238,-3.58775 6.491651,-5.97945 10.696968,-8.08211 -0.59881,-0.37284 -1.197614,-0.74568 -1.814568,-1.12982 -0.398262,-0.25138 -0.796531,-0.50277 -1.206861,-0.76177 -0.945378,-0.58864 -1.899044,-1.16409 -2.858801,-1.72898 -3.862267,-2.3259 -7.374306,-4.683 -9.012923,-9.0814 0.141205,-2.118104 0.807043,-2.771864 2.293888,-4.279644 2.092743,-0.98646 2.092743,-0.98646 4.450827,-1.81457 0.780991,-0.28034 1.561981,-0.56068 2.366641,-0.84951 1.947238,-0.62269 1.947238,-0.62269 3.042827,-0.62269 0,-0.36154 0,-0.72309 0,-1.09559 0.361544,0 0.723088,0 1.095588,0 0.135579,-0.36154 0.271158,-0.72308 0.410846,-1.09558 5.354561,-12.85096 16.360989,-23.21984 28.979592,-28.857629 11.392135,-4.493048 25.049909,-4.252421 36.379101,0.132669 8.336333,3.779887 13.967233,9.9617 18.774783,17.54653 0.78878,1.36659 0.78878,1.36659 2.00716,1.86593 1.11551,-3.28926 1.11551,-3.28926 2.12484,-6.61205 2.07901,-7.22002 4.96439,-14.426168 11.62778,-18.541549 7.41601,-3.802825 14.38852,-3.903311 21.62931,0.214004 z m -23.87826,6.314611 c -2.57603,3.41233 -3.99091,7.144924 -5.35383,11.167724 -0.67194,1.97944 -1.39506,3.93091 -2.1441,5.88237 -0.21679,0.56632 -0.43357,1.13265 -0.65692,1.71614 -0.51009,1.25642 -1.09901,2.48046 -1.70544,3.69333 0.33895,0.6214 0.67789,1.2428 1.02711,1.88304 2.05793,4.4185 1.62119,8.64564 0.13695,13.21553 -0.66133,1.805184 -1.39685,3.444204 -2.25965,5.169814 0.87759,1.1981 0.87759,1.1981 2.19118,2.19117 4.50019,-0.30042 8.41474,-3.19231 11.36673,-6.47081 1.33349,-1.627374 2.47508,-3.343924 3.62913,-5.101334 3.47645,-4.99692 8.14258,-6.55451 13.77617,-8.48011 2.02212,-0.6663 2.02212,-0.6663 3.54782,-2.4073 -2.16926,0 -4.33853,0 -6.57353,0 0,-0.90386 0,-1.80772 0,-2.73897 0.71956,0.0318 1.43912,0.0636 2.18048,0.0963 0.95077,0.0257 1.90157,0.0506 2.85238,0.0749 0.7102,0.0344 0.7102,0.0344 1.43475,0.0695 2.37667,0.0455 3.67981,-0.0468 5.61168,-1.48397 1.97383,-2.76495 1.93769,-5.88384 1.61557,-9.16485 -1.32653,-5.76156 -4.58602,-9.700666 -9.3125,-13.147063 -7.63215,-3.749122 -15.70672,-2.632656 -21.36398,3.834559 z m -72.856621,4.930144 c -0.361544,0.72309 -0.723088,1.44618 -1.095588,2.19118 7.184682,5.27648 14.026444,7.46427 23.007354,6.57353 6.485001,-1.65318 11.581075,-5.32458 15.88603,-10.408089 0,-0.361544 0,-0.723088 0,-1.095588 -12.425861,-4.409175 -26.190838,-3.990752 -37.797796,2.738967 z m 41.084561,-1.09558 c -0.938459,0.99222 -1.846208,2.01358 -2.73897,3.0471 -2.663885,2.97356 -5.373045,5.27154 -8.764707,7.36098 0.492281,2.46142 1.13394,4.19571 2.182615,6.44728 0.49783,1.06928 0.49783,1.06928 1.005717,2.16015 0.348835,0.7411 0.697665,1.48219 1.057073,2.24575 0.340355,0.73474 0.680716,1.46948 1.031392,2.22648 1.705256,3.64256 3.437014,7.13378 5.679086,10.475494 6.307594,-1.261514 11.525464,-5.600624 15.064344,-10.887414 0.45193,-0.74568 0.90386,-1.49137 1.36948,-2.25965 0.36155,-0.54231 0.72309,-1.08463 1.09559,-1.64338 -1.56356,-7.8178 -8.36997,-13.75117 -14.51441,-18.28691 -1.25287,-0.98495 -1.25287,-0.98495 -2.46721,-0.88588 z m -52.588238,10.40808 c -6.186568,6.46061 -6.186568,6.46061 -9.517924,14.41384 0.263068,2.58685 1.008577,3.0809 2.944394,4.75896 5.303743,3.29599 11.756002,6.025734 18.077207,6.025734 1.696644,-5.300694 3.194905,-10.653734 4.67671,-16.017494 0.753721,-2.71872 1.508982,-5.42214 2.444614,-8.08545 -0.423686,-0.19277 -0.847372,-0.38555 -1.283893,-0.58417 -3.770719,-1.78736 -6.640349,-3.67711 -9.67199,-6.53715 -2.319141,0 -6.028529,4.52342 -7.669118,6.02573 z m 35.058825,2.19118 c -1.051255,0.0453 -2.104022,0.0588 -3.156236,0.0535 -0.612576,-0.002 -1.225158,-0.004 -1.856294,-0.005 -0.639412,-0.005 -1.278825,-0.009 -1.937608,-0.0139 -0.645767,-0.002 -1.291534,-0.005 -1.956868,-0.007 -1.595977,-0.006 -3.191898,-0.0155 -4.787847,-0.0267 -2.637684,8.93789 -2.637684,8.93789 -5.169808,17.90603 -0.168769,0.61222 -0.337539,1.22445 -0.51142,1.85522 -0.440443,1.775814 -0.440443,1.775814 -0.344508,4.341704 3.874318,0.73924 7.708587,0.65253 11.640626,0.6505 0.785093,-4e-5 1.570191,-9e-5 2.379075,-1.3e-4 6.576817,-0.0353 12.933847,-0.45358 19.395742,-1.74596 -0.850324,-2.817424 -2.062735,-5.408804 -3.359523,-8.041454 -0.21731,-0.44523 -0.434614,-0.89045 -0.658508,-1.34917 -0.690144,-1.41287 -1.383115,-2.82433 -2.076179,-4.23576 -0.470237,-0.9614 -0.940288,-1.92289 -1.410142,-2.88448 -1.148363,-2.34915 -2.299262,-4.69705 -3.451531,-7.04429 -1.211074,-0.0577 -1.211074,-0.0577 -2.738971,0.54779 z m 36.702213,8.21691 c -0.80012,1.17491 -1.55734,2.37914 -2.29389,3.5949 -5.44344,8.60721 -12.43748,12.190414 -22.274737,14.410494 -5.786645,1.08778 -11.353505,1.42624 -17.234919,1.37283 -1.334541,-0.008 -1.334541,-0.008 -2.69604,-0.0169 -12.557983,-0.16225 -28.586577,-1.8194 -38.765129,-10.048874 -0.180772,-0.36154 -0.361545,-0.72309 -0.547795,-1.09559 -2.545298,0.50906 -4.625299,1.24728 -7.018612,2.22542 -0.737917,0.30011 -1.475834,0.60022 -2.236112,0.90942 -0.842075,0.34637 -0.842075,0.34637 -1.701159,0.69973 0.934855,3.739434 3.708205,5.352974 6.881664,7.292514 20.28117,11.83395 44.687327,13.27277 67.241733,8.18267 7.828306,-2.10242 15.870406,-5.11631 20.371096,-12.22266 2.42723,-4.504774 3.3111,-8.950374 1.91728,-14.002994 -0.18077,-0.42933 -0.36154,-0.85866 -0.54779,-1.30101 -0.36155,0 -0.72309,0 -1.09559,0 z m -2.56779,22.219904 c -3.02969,2.71249 -6.88993,4.11272 -10.57927,5.7176 0.16841,0.7065 0.16841,0.7065 0.34023,1.42726 0.9168,4.02254 1.52657,7.8998 1.73539,12.02152 -0.032,1.3116 -0.032,1.3116 0.66335,1.88946 4.60088,0.53058 8.24714,-0.038 12.05147,-2.73897 2.74791,-2.74791 4.16801,-4.7669 4.62201,-8.59352 -0.46987,-4.63162 -2.72038,-8.1335 -6.26539,-11.12707 -1.30246,-0.126 -1.30246,-0.126 -2.56779,1.40372 z m -79.509324,5.53144 c -0.538788,0.43428 -1.077571,0.86856 -1.632684,1.31599 -1.96038,1.5654 -3.90489,3.05975 -5.991499,4.45083 -1.904505,1.3538 -1.904505,1.3538 -2.225413,3.25252 0.591283,2.09224 1.340457,2.6439 3.184053,3.76609 4.921147,1.96988 10.68513,1.87137 15.612133,-0.0342 3.804864,-1.82219 6.501112,-4.25156 9.038604,-7.63488 0,-0.54232 0,-1.08463 0,-1.64338 -2.224943,-0.62936 -4.450532,-1.25641 -6.676241,-1.88304 -0.630232,-0.17831 -1.260464,-0.3566 -1.909791,-0.54031 -0.609049,-0.17124 -1.218092,-0.34248 -1.845596,-0.5189 -0.839094,-0.23667 -0.839094,-0.23667 -1.695138,-0.47812 -3.008534,-0.96584 -3.008534,-0.96584 -5.858428,-0.0526 z"
       fill="#53464c"
       id="path9"
       style="stroke-width:0.547794" />
    <path
       d="m 153.78258,58.87792 c 4.6029,3.702329 7.23564,6.928053 8.69624,12.770446 0.18662,3.59251 0.16516,6.09732 -1.64339,9.31251 -2.25792,1.50528 -4.33375,1.21382 -6.95013,1.16406 -0.48901,-0.005 -0.97801,-0.01 -1.48183,-0.015 -1.20657,-0.0129 -2.41306,-0.0326 -3.61951,-0.0535 0,0.90386 0,1.80772 0,2.73897 2.16927,0 4.33853,0 6.57353,0 -2.36682,2.36683 -5.35191,3.14354 -8.44801,4.25932 -4.70627,1.78236 -7.68886,4.28129 -10.38241,8.57961 -3.09205,4.609194 -6.67049,7.515324 -11.84605,9.620634 -2.19118,-0.54779 -2.19118,-0.54779 -3.83456,-2.73897 0.50842,-0.966 0.50842,-0.966 1.02712,-1.95151 2.13505,-4.458504 2.79468,-8.462034 2.25965,-13.386724 -0.68955,-1.4805 -1.40912,-2.94857 -2.19118,-4.38236 0.36154,-0.72308 0.72309,-1.44617 1.09559,-2.19117 0.52513,-1.35364 1.03713,-2.7124 1.54067,-4.07422 0.43745,-1.16937 0.43745,-1.16937 0.88374,-2.36236 0.53155,-1.43503 1.05653,-2.87252 1.57063,-4.31388 2.1128,-5.79822 4.72938,-11.227238 10.58141,-14.039367 5.72572,-2.269726 10.76904,-1.852213 16.16849,1.063491 z m -8.28538,11.127066 c -1.30372,1.06454 -1.30372,1.06454 -1.23254,3.01287 -0.0712,1.94833 -0.0712,1.94833 1.23254,3.01287 0.90386,0 1.80772,0 2.73897,0 1.26082,-1.89124 1.28452,-2.71015 1.09559,-4.93015 -0.36155,-0.36154 -0.72309,-0.72309 -1.09559,-1.09559 -0.90386,0 -1.80772,0 -2.73897,0 z"
       fill="#ebdca7"
       id="path20"
       style="stroke-width:0.547794" />
    <path
       d="m 119.20308,86.986606 c 0.36154,0 0.72309,0 1.09559,0 1.92464,4.57102 1.44047,8.85565 -0.37661,13.328944 -3.43152,6.97539 -9.52089,10.09838 -16.55793,12.77473 -22.736258,7.49905 -48.268429,5.14996 -69.616942,-5.28749 -3.251125,-1.77818 -6.404344,-3.66242 -8.764706,-6.57353 -0.180772,-0.72309 -0.361545,-1.446184 -0.547795,-2.191184 1.311217,-0.53933 2.623929,-1.07501 3.937271,-1.60914 0.730856,-0.2987 1.461712,-0.5974 2.214715,-0.90515 2.064927,-0.77247 2.064927,-0.77247 4.803897,-1.32027 0.937988,0.88729 1.84696,1.80548 2.738971,2.73897 3.1906,1.76082 6.447209,3.007764 9.894532,4.142704 0.502952,0.16638 1.005898,0.33277 1.524089,0.50419 9.136128,2.94925 17.928273,3.67645 27.474764,3.70697 0.866435,0.0113 1.73287,0.0226 2.625561,0.0342 12.151564,0.0398 23.900653,-2.08553 33.357673,-10.099954 2.09321,-2.44866 3.66569,-5.03213 5.2661,-7.82105 0.30717,-0.46958 0.61434,-0.93917 0.93082,-1.42298 z"
       fill="#f6dea7"
       id="path24"
       style="stroke-width:0.547794" />
    <path
       d="m 85.239838,78.221896 c 1.563027,3.17719 3.123254,6.35573 4.680857,9.53558 0.530616,1.08224 1.062003,2.1641 1.594169,3.24557 0.763439,1.55182 1.524122,3.10496 2.284258,4.6584 0.239649,0.48562 0.479292,0.97124 0.7262,1.47157 1.670399,3.423694 1.670399,3.423694 1.670399,4.644034 -0.969502,0.17428 -1.939711,0.34463 -2.910156,0.51356 -0.540196,0.0953 -1.080398,0.19066 -1.636962,0.28887 -5.676287,0.82118 -11.261377,0.92517 -16.988039,0.90943 -1.172017,0.003 -1.172017,0.003 -2.367715,0.006 -0.753096,-5.5e-4 -1.506198,-0.002 -2.282115,-0.002 -0.678821,-5.5e-4 -1.357648,-10e-4 -2.057039,-0.002 -1.77373,-0.0666 -3.432582,-0.28302 -5.173417,-0.61869 0.36924,-4.036684 1.364128,-7.837434 2.396599,-11.743334 0.249975,-0.96653 0.249975,-0.96653 0.505001,-1.95259 0.920508,-3.51878 1.926647,-6.9725 3.124136,-10.40702 0.406249,0.003 0.812504,0.006 1.231063,0.009 1.837882,0.0114 3.675754,0.0185 5.513652,0.0255 0.639413,0.005 1.27882,0.009 1.937608,0.0139 0.612577,0.002 1.225153,0.004 1.856294,0.005 0.8477,0.004 0.8477,0.004 1.712525,0.009 1.489573,-0.0642 2.707653,-0.60999 4.182682,-0.60999 z"
       fill="#d7cd95"
       id="path28"
       style="stroke-width:0.547794" />
    <path
       d="m 100.03028,66.170426 c 5.66249,1.84189 10.46917,7.192 13.69486,12.05147 0.3227,0.47736 0.64541,0.95471 0.9779,1.44652 1.75,2.72666 1.75,2.72666 2.30886,4.03143 -1.75583,7.02331 -7.19283,11.71392 -13.14706,15.33823 -2.12054,1.032334 -2.52804,1.148324 -4.930148,0.5478 -1.099867,-1.66692 -1.099867,-1.66692 -2.259651,-3.93727 -0.207165,-0.40546 -0.414329,-0.81092 -0.627772,-1.22866 -0.694176,-1.37605 -1.370729,-2.75957 -2.042724,-4.14657 -0.25421,-0.52343 -0.508425,-1.04686 -0.770336,-1.58615 -0.781165,-1.62336 -1.548866,-3.2523 -2.311006,-4.88467 -0.24653,-0.5195 -0.493064,-1.039 -0.747066,-1.57424 -1.713735,-3.7496 -1.713735,-3.7496 -1.10174,-6.19759 1.116985,-0.91798 1.116985,-0.91798 2.533548,-1.81457 3.408041,-2.27203 5.951324,-4.75104 8.422335,-8.04573 z"
       fill="#d6cc95"
       id="path29"
       style="stroke-width:0.547794" />
    <path
       d="m 54.563366,70.552786 c 0.610106,0.47452 1.220211,0.94905 1.848805,1.43796 2.963203,2.22372 6.120094,4.5051 9.654872,5.68336 -0.218904,0.71744 -0.437808,1.43488 -0.663346,2.17406 -1.4712,4.90285 -2.818015,9.84196 -4.189768,14.77332 -0.213254,0.76263 -0.426509,1.52527 -0.646225,2.31101 -0.193218,0.69378 -0.386436,1.38757 -0.585509,2.10237 -0.488682,1.646594 -0.488682,1.646594 -1.036476,2.742184 -6.673362,-0.35123 -13.688311,-2.716634 -19.172795,-6.573534 -1.643383,-2.19117 -1.643383,-2.19117 -1.985754,-3.86879 0.794082,-5.00272 4.621056,-8.86271 7.981532,-12.44948 1.207256,-1.26523 1.207256,-1.26523 2.495031,-2.95723 1.869595,-2.1033 4.039813,-3.71114 6.299633,-5.37523 z"
       fill="#d7cd97"
       id="path32"
       style="stroke-width:0.547794" />
    <path
       d="m 96.743515,64.527047 c -2.957425,5.914859 -8.252798,8.709069 -14.197712,11.032919 -6.975353,1.94496 -14.548618,0.10066 -20.786219,-3.21401 -1.415815,-0.8438 -2.684524,-1.78632 -3.909453,-2.88876 1.850225,-3.700451 5.826868,-4.437891 9.55216,-5.854552 9.98282,-2.871769 19.516169,-2.350615 29.341224,0.924403 z"
       fill="#d7ce96"
       id="path41"
       style="stroke-width:0.547794" />
    <path
       d="m 118.10749,107.80279 c 3.12626,1.56313 4.84149,3.76332 6.50506,6.81319 1.01437,3.21218 0.95544,5.43844 -0.23966,8.59352 -2.21555,3.52215 -4.9971,5.87038 -9.00437,7.05285 -2.20064,0.15099 -4.37407,0.1804 -6.57353,0 -1.36874,-1.36874 -1.02098,-5.33514 -1.18439,-7.29893 -0.2535,-2.79881 -0.67971,-5.36711 -1.55458,-8.03931 0.59457,-0.28457 1.18914,-0.56914 1.80173,-0.86235 0.78381,-0.38202 1.56763,-0.76404 2.3752,-1.15764 0.77534,-0.37496 1.55068,-0.74992 2.34952,-1.13624 2.09161,-1.14579 3.75841,-2.37403 5.52502,-3.96509 z"
       fill="#e3d2a7"
       id="path50"
       style="stroke-width:0.547794" />
    <path
       d="m 41.416306,114.37632 c 1.090283,0.28798 2.177897,0.58618 3.263227,0.89231 0.609047,0.17123 1.218093,0.34247 1.845596,0.5189 0.63023,0.1783 1.260461,0.3566 1.90979,0.54031 0.961234,0.27062 0.961234,0.27062 1.941887,0.54672 1.578379,0.44452 3.156484,0.88999 4.734354,1.33632 -0.705971,3.52985 -2.14848,4.93919 -4.930147,7.12132 -6.083611,3.36875 -12.247514,4.42849 -19.070084,2.56779 -1.746094,-0.92441 -1.746094,-0.92441 -3.389477,-2.56779 -0.291015,-1.59203 -0.291015,-1.59203 0,-3.28676 1.283893,-1.2839 1.283893,-1.2839 3.012868,-2.46508 0.599514,-0.41662 1.199027,-0.83324 1.816708,-1.26249 0.575505,-0.39685 1.15101,-0.7937 1.743954,-1.20258 0.813118,-0.65843 1.623903,-1.31976 2.430837,-1.98575 1.951516,-1.30102 1.951516,-1.30102 4.690487,-0.75322 z"
       fill="#e8d5a8"
       id="path54"
       style="stroke-width:0.547794" />
    <path
       d="m 145.4972,70.004986 c 0.90386,0 1.80772,0 2.73897,0 1.09559,1.09559 1.09559,1.09559 1.23254,2.70474 -0.13695,1.67762 -0.13695,1.67762 -1.23254,3.321 -0.90386,0 -1.80772,0 -2.73897,0 -1.09559,-1.09559 -1.09559,-1.09559 -1.23254,-3.01287 0.13695,-1.91728 0.13695,-1.91728 1.23254,-3.01287 z"
       fill="#4b3f48"
       id="path83"
       style="stroke-width:0.547794" />
  </g>
</svg>
